<svg width="12" height="12" viewBox="0 0 12 12" fill="none" xmlns="http://www.w3.org/2000/svg">
<path d="M10.2 9.75L2.70001 2.25M5.10001 5.22079C4.9133 5.42663 4.80001 5.69702 4.80001 5.99315C4.80001 6.63804 5.33727 7.16083 6.00001 7.16083C6.30558 7.16083 6.58448 7.04969 6.79634 6.86669M10.2194 7.16083C10.6325 6.54241 10.8 6.03806 10.8 6.03806C10.8 6.03806 9.7077 2.55 6.00001 2.55C5.79186 2.55 5.59195 2.56099 5.40001 2.58175M8.70001 8.67472C8.0113 9.11407 7.12468 9.42476 6.00001 9.40637C2.33847 9.34649 1.20001 6.03806 1.20001 6.03806C1.20001 6.03806 1.72894 4.34904 3.30001 3.32166" stroke="#878792" stroke-width="1.3" stroke-linecap="round"/>
</svg>
